<svg width="300" height="300" viewBox="0 0 300 300" xmlns="http://www.w3.org/2000/svg">
  <defs>
    <!-- Main gold gradient with more realistic shading -->
    <linearGradient id="goldGradient" x1="0%" y1="0%" x2="100%" y2="100%">
      <stop offset="0%" style="stop-color:#FFE55C;stop-opacity:1" />
      <stop offset="20%" style="stop-color:#FFD700;stop-opacity:1" />
      <stop offset="50%" style="stop-color:#DAA520;stop-opacity:1" />
      <stop offset="80%" style="stop-color:#B8860B;stop-opacity:1" />
      <stop offset="100%" style="stop-color:#8B7355;stop-opacity:1" />
    </linearGradient>
    
    <!-- Top highlight gradient -->
    <linearGradient id="highlightGradient" x1="0%" y1="0%" x2="100%" y2="100%">
      <stop offset="0%" style="stop-color:#FFF8DC;stop-opacity:0.8" />
      <stop offset="50%" style="stop-color:#FFD700;stop-opacity:0.6" />
      <stop offset="100%" style="stop-color:#DAA520;stop-opacity:0.3" />
    </linearGradient>
    
    <!-- Lightning bolt gradient -->
    <linearGradient id="lightningGradient" x1="0%" y1="0%" x2="100%" y2="100%">
      <stop offset="0%" style="stop-color:#FFF8DC;stop-opacity:1" />
      <stop offset="30%" style="stop-color:#FFE55C;stop-opacity:1" />
      <stop offset="70%" style="stop-color:#FFD700;stop-opacity:1" />
      <stop offset="100%" style="stop-color:#DAA520;stop-opacity:1" />
    </linearGradient>
    
    <!-- Shadow gradient -->
    <radialGradient id="shadowGradient" cx="50%" cy="50%" r="50%">
      <stop offset="0%" style="stop-color:#000000;stop-opacity:0.4" />
      <stop offset="70%" style="stop-color:#000000;stop-opacity:0.2" />
      <stop offset="100%" style="stop-color:#000000;stop-opacity:0" />
    </radialGradient>
    
    <!-- Specular highlights -->
    <linearGradient id="specularGradient" x1="0%" y1="0%" x2="100%" y2="100%">
      <stop offset="0%" style="stop-color:#FFFFFF;stop-opacity:0.9" />
      <stop offset="100%" style="stop-color:#FFFFFF;stop-opacity:0.1" />
    </linearGradient>
  </defs>
  
  <!-- Shadow -->
  <ellipse cx="150" cy="270" rx="80" ry="20" fill="url(#shadowGradient)" />
  
  <!-- Main hexagon with 3D effect -->
  <path d="M 150 30 L 210 60 L 210 120 L 150 150 L 90 120 L 90 60 Z" 
        fill="url(#goldGradient)" 
        stroke="#B8860B" 
        stroke-width="1" />
  
  <!-- Top face highlight -->
  <path d="M 150 30 L 210 60 L 150 90 L 90 60 Z" 
        fill="url(#highlightGradient)" />
  
  <!-- Left face (darker) -->
  <path d="M 90 60 L 90 120 L 150 150 L 150 90 Z" 
        fill="url(#goldGradient)" 
        opacity="0.7" />
  
  <!-- Right face (medium) -->
  <path d="M 210 60 L 210 120 L 150 150 L 150 90 Z" 
        fill="url(#goldGradient)" 
        opacity="0.85" />
  
  <!-- Inner hexagon (recessed) -->
  <path d="M 150 50 L 190 70 L 190 110 L 150 130 L 110 110 L 110 70 Z" 
        fill="url(#goldGradient)" 
        opacity="0.9" />
  
  <!-- Inner recessed area (darker) -->
  <path d="M 150 50 L 190 70 L 150 90 L 110 70 Z" 
        fill="url(#goldGradient)" 
        opacity="0.6" />
  
  <!-- Lightning bolt -->
  <path d="M 130 80 L 145 80 L 140 95 L 160 95 L 155 110 L 140 110 L 145 95 L 125 95 Z" 
        fill="url(#lightningGradient)" />
  
  <!-- Specular highlights -->
  <rect x="120" y="40" width="8" height="3" fill="url(#specularGradient)" rx="1" />
  <rect x="140" y="35" width="6" height="2" fill="url(#specularGradient)" rx="1" />
  
  <!-- Edge highlights -->
  <path d="M 150 30 L 210 60" stroke="url(#specularGradient)" stroke-width="2" />
  <path d="M 210 60 L 210 120" stroke="url(#specularGradient)" stroke-width="1.5" />
</svg>
